<?xml version="1.0" encoding="UTF-8"?><svg id="Layer_1" xmlns="http://www.w3.org/2000/svg" viewBox="0 0 273.67 273.35"><defs><style>.cls-1,.cls-2{fill:#9bc2be;}.cls-3{fill:#f37979;}.cls-2{font-family:Roboto-Bold, Roboto;font-size:24.03px;font-weight:700;}</style></defs><rect class="cls-3" width="273.67" height="273.35" rx="24.45" ry="24.45"/><g><g><path class="cls-1" d="m130.39,219.57v-2.1c0-60.34,0-120.68.02-181.03,0-1.59.12-3.22.49-4.76,1.26-5.11,5.36-7.94,10.57-7.45,4.41.41,8.08,4.48,8.41,9.35.06.96.06,1.92.06,2.88,0,60.34,0,120.68,0,181.03v2.08h-19.55Z"/><path class="cls-1" d="m71.2,160.42c.29-10.68,4.02-18.52,11.96-24.03,11.26-7.82,26.31-5.09,34.68,6.12,8.86,11.86,6.88,28.97-4.45,38.48-14.41,12.09-36.4,4.5-41.17-14.25-.61-2.4-.8-4.91-1.02-6.32Z"/><path class="cls-1" d="m202.47,117.8c-.46,10.64-4.83,18.68-14.31,23.31-10.19,4.97-22.09,1.49-28.88-8.06-7.9-11.12-5.54-27.15,5.19-35.3,13.95-10.58,34.03-2.54,37.36,14.98.33,1.75.45,3.55.64,5.07Z"/><path class="cls-1" d="m105.48,102.88c-10.14,0-18.62-7.89-19.78-18.17-1.13-10.02,4.92-19.63,14.05-22.35,11.07-3.3,22.68,4.05,24.72,15.66,1.85,10.46-3.47,20.3-12.85,23.73-1.02.37-2.07.67-3.14.86-1.07.19-2.17.2-3.01.27Z"/><path class="cls-1" d="m167.5,75.46c-7.48-.02-13.37-6.29-13.34-14.19.03-7.72,6.03-13.96,13.41-13.95,7.32,0,13.35,6.31,13.4,14.02.06,7.76-6.04,14.14-13.48,14.12Z"/><path class="cls-1" d="m125.61,34.1c-.05,5.31-4.38,9.78-9.4,9.68-5.1-.1-9.11-4.5-9.06-9.94.05-5.29,4.2-9.6,9.22-9.57,5.06.03,9.27,4.52,9.23,9.84Z"/><path class="cls-1" d="m161.45,13.92c0,5.36-4.03,9.64-9.13,9.7-5.11.06-9.32-4.36-9.31-9.75,0-5.41,4.16-9.7,9.36-9.66,5.08.03,9.09,4.31,9.08,9.71Z"/></g><text class="cls-2" transform="translate(73.25 248.57)"><tspan x="0" y="0">Carbon App</tspan></text></g></svg>