<?xml version="1.0" encoding="UTF-8"?><svg id="Layer_1" xmlns="http://www.w3.org/2000/svg" viewBox="0 0 274.5 274.5"><defs><style>.cls-1,.cls-2{fill:#9bc1bd;}.cls-3{fill:#407364;stroke:#2b4359;stroke-miterlimit:10;stroke-width:2.72px;}.cls-2{font-family:Roboto-Bold, Roboto;font-size:33.9px;font-weight:700;}</style></defs><rect class="cls-3" x="1.36" y="1.36" width="271.79" height="271.79" rx="33.97" ry="33.97"/><g><g><path class="cls-1" d="M175.7,144.67c.3-.45,.55-.99,.96-1.41,7.85-7.95,15.7-15.9,23.59-23.81,4.84-4.86,10.82-6.57,17.6-4.75,6.78,1.82,10.97,6.23,12.28,12.75,1.05,5.22-.3,10.03-4.24,13.91-6.94,6.83-14,13.56-21.09,20.26-8.71,8.23-17.44,16.44-26.27,24.54-7.37,6.76-16.27,10.41-26.63,10.23-19.04-.34-38.08-.84-57.12-1.34-1.49-.04-2.54,.3-3.62,1.25-4.07,3.59-8.22,7.1-12.37,10.61-1.41,1.19-2.46,1.07-3.82-.26-1.36-1.34-1.46-2.31-.21-3.61,4.5-4.67,8.97-9.36,13.58-13.92,.76-.75,2.13-1.3,3.24-1.33,20.34-.54,40.68-.96,61.02-1.49,6.52-.17,12.27-2.4,16.9-6.71,16.05-14.94,32.01-29.95,47.98-44.96,2.89-2.72,2.9-6.6,.16-9.23-2.83-2.71-7.07-2.73-10.17-.03-9.66,8.39-19.29,16.81-28.99,25.16-1.76,1.51-3.06,3.11-4.05,5.22-2.95,6.29-8.35,9.76-15.65,9.63-10.35-.19-20.68-.89-31.02-1.38-1.11-.05-2.23-.14-3.33-.28-1.89-.25-2.4-.95-2.31-3.03,.06-1.48,.47-2.55,2.4-2.66,7.61-.43,15.22-.98,22.83-1.41,3.59-.21,7.19-.24,10.78-.4,3.46-.15,6.29-2.38,6.76-5.25,.5-3.08-1.06-5.88-3.98-6.97-.67-.25-1.44-.39-2.16-.4-21.15-.25-42.31-.46-63.46-.71-6.12-.07-11.37,1.92-15.97,5.64-2.73,2.21-5.5,4.36-8.26,6.53-1.41,1.11-2.34,0-3.15-.77-.84-.8-2.3-1.75-1.07-3.05,3.81-4.05,7.43-8.34,11.73-11.88,5.04-4.14,11.41-5.72,18.11-5.8,19.98-.24,39.95-.46,59.93-.68,8.8-.1,15.1,3.43,18.41,11.27,.04,.09,.17,.14,.69,.55Z"/><path class="cls-1" d="M120.6,59.38c2.86-8.04,.71-19.73-11.49-24.22-5.65-2.08-11.5-3.14-17.58-3.22-11.26-.15-22.41,.76-33.45,2.83-.53,.1-1.05,.26-1.82,.46,1.1,3.75,2.07,7.4,3.24,11,3.29,10.16,7.02,20.14,13.8,28.82,1.43,1.83,2.96,3.62,4.71,5.17,6.57,5.82,15.34,7.09,23.57,3.3,2.87-1.32,5.59-3.02,8.13-4.86,5.38-3.9,12.01-2.61,14.89,3.16,3.16,6.35,5.24,13.05,6.68,19.92,.39,1.87-.1,2.62-1.8,3.03-2.09,.51-3.11-.07-3.89-1.83-2.52-5.75-5.07-11.48-7.73-17.18-.89-1.9-1.29-1.87-2.95-.49-5.78,4.8-12.25,8.34-20.01,9.32-10.4,1.3-18.96-2.31-26.13-9.15-8.32-7.93-13.49-17.67-17.32-28.02-2.69-7.29-4.84-14.77-7.04-22.22-1.51-5.11,1.64-9.15,7.27-10.31,11.25-2.31,22.61-3.45,34.11-3.6,9.2-.12,18.15,.91,26.69,4.38,15.5,6.29,22.39,20.91,17.26,36.04-2.31,6.82-7.15,8.57-13.57,5.26-8.7-4.48-18.22-7.21-27.73-9.85-1.21-.33-2.14-.76-2.24-2.16-.18-2.54,1.09-3.81,3.73-3.3,5.81,1.13,11.64,2.25,17.37,3.67,4.46,1.1,8.8,2.66,13.3,4.04Z"/><path class="cls-1" d="M208.9,56.25c-3.96-.63-7.84-1.34-11.75-1.83-8.87-1.11-17.79-1.57-26.73-1.08-6.11,.34-12.03,1.64-17.36,4.61-7.26,4.05-9.69,10.41-9.28,17.99,.07,1.33,.43,2.64,.69,3.96,.05,.26,.27,.5,.45,.8,7.6-3,15.39-5.28,23.39-6.87,2.24-.45,4.49-.86,6.75-1.2,2.16-.33,2.95,.24,3.39,2.21,.38,1.72-.29,2.64-2.12,3.26-7.56,2.56-15.12,5.12-22.64,7.79-2.19,.78-4.26,1.87-6.35,2.89-4.55,2.24-9.08,.77-10.89-3.77-4.53-11.36-3.49-21.97,5.33-31.31,4.98-5.27,11.74-7.62,18.73-9.44,8.62-2.24,17.45-1.96,26.24-1.62,8.99,.35,17.87,1.61,26.68,3.34,5.71,1.12,8.64,4.97,7.34,10.35-2.88,11.94-6.69,23.61-12.55,34.59-3.89,7.3-8.71,14.01-15.66,19.09-9.7,7.1-20.29,7.96-31.25,3.15-3.87-1.7-7.3-4.35-10.79-6.73-1.91-1.3-2.39-1.48-3.16,.64-1.89,5.16-3.56,10.39-5.22,15.61-.72,2.27-2.69,3.13-4.75,1.75-.58-.39-1.17-1.39-1.06-1.99,1.13-5.88,2.09-11.82,3.74-17.59,1.45-5.08,4.94-7.46,9.66-7,2.02,.2,4.16,1.15,5.84,2.29,4.32,2.92,8.73,5.52,14.06,6.42,6.57,1.11,12.27-.52,17.15-4.75,5.05-4.37,8.67-9.71,11.61-15.48,4.71-9.22,7.77-18.98,10.38-28.87,.09-.33,.07-.67,.12-1.24Z"/></g><text class="cls-2" transform="translate(44.21 239.75)"><tspan x="0" y="0">Carbon App</tspan></text></g></svg>